HIERARCHY
ROOT Hips
{
	OFFSET 0.559510 88.370186 5.270278
	CHANNELS 6 Xposition Yposition Zposition Zrotation Yrotation Xrotation 
	JOINT Spine
	{
		OFFSET 0.000000 8.814246 -2.080107
		CHANNELS 3 Zrotation Yrotation Xrotation
		JOINT Spine1
		{
			OFFSET 0.000000 8.844141 0.000000
			CHANNELS 3 Zrotation Yrotation Xrotation
			JOINT Spine2
			{
				OFFSET -0.000000 11.682268 -0.000000
				CHANNELS 3 Zrotation Yrotation Xrotation
				JOINT Spine3
				{
					OFFSET 0.000000 11.746700 0.000000
					CHANNELS 3 Zrotation Yrotation Xrotation
					JOINT Neck
					{
						OFFSET 0.000000 17.658264 0.000000
						CHANNELS 3 Zrotation Yrotation Xrotation
						JOINT Neck1
						{
							OFFSET 0.000000 5.101515 0.000000
							CHANNELS 3 Zrotation Yrotation Xrotation
							JOINT Head
							{
								OFFSET -0.000000 5.101515 -0.000000
								CHANNELS 3 Zrotation Yrotation Xrotation
								JOINT HeadEnd
								{
									OFFSET 0.000000 11.655085 0.000000
									CHANNELS 3 Zrotation Yrotation Xrotation
									End Site
									{
										OFFSET 0.000000 0.000000 0.000000
									}
								}
							}
						}
					}
					JOINT RightShoulder
					{
						OFFSET -2.625389 11.175210 0.000000
						CHANNELS 3 Zrotation Yrotation Xrotation
						JOINT RightArm
						{
							OFFSET 0.000000 10.434715 -0.000000
							CHANNELS 3 Zrotation Yrotation Xrotation
							JOINT RightForeArm
							{
								OFFSET -0.000000 29.628420 0.000000
								CHANNELS 3 Zrotation Yrotation Xrotation
								JOINT RightHand
								{
									OFFSET -0.000000 22.857611 0.000000
									CHANNELS 3 Zrotation Yrotation Xrotation
									JOINT RightHandThumb1
									{
										OFFSET -2.867323 3.959563 2.944291
										CHANNELS 3 Zrotation Yrotation Xrotation
										JOINT RightHandThumb2
										{
											OFFSET -0.000000 3.350399 0.000000
											CHANNELS 3 Zrotation Yrotation Xrotation
											JOINT RightHandThumb3
											{
												OFFSET 0.000000 3.756509 -0.000000
												CHANNELS 3 Zrotation Yrotation Xrotation
												JOINT RightHandThumb4
												{
													OFFSET 0.000000 3.147345 -0.000000
													CHANNELS 3 Zrotation Yrotation Xrotation
													End Site
													{
														OFFSET 0.000000 0.000000 0.000000
													}
												}
											}
										}
									}
									JOINT RightHandIndex1
									{
										OFFSET -0.086752 10.030893 2.345280
										CHANNELS 3 Zrotation Yrotation Xrotation
										JOINT RightHandIndex2
										{
											OFFSET 0.000000 4.061090 -0.000000
											CHANNELS 3 Zrotation Yrotation Xrotation
											JOINT RightHandIndex3
											{
												OFFSET -0.000000 3.248873 0.000000
												CHANNELS 3 Zrotation Yrotation Xrotation
												JOINT RightHandIndex4
												{
													OFFSET 0.000000 2.639709 -0.000000
													CHANNELS 3 Zrotation Yrotation Xrotation
													End Site
													{
														OFFSET 0.000000 0.000000 0.000000
													}
												}
											}
										}
									}
									JOINT RightHandMiddle1
									{
										OFFSET 0.104102 9.502952 0.006768
										CHANNELS 3 Zrotation Yrotation Xrotation
										JOINT RightHandMiddle2
										{
											OFFSET -0.000000 4.568727 0.000000
											CHANNELS 3 Zrotation Yrotation Xrotation
											JOINT RightHandMiddle3
											{
												OFFSET -0.000000 3.654981 0.000000
												CHANNELS 3 Zrotation Yrotation Xrotation
												JOINT RightHandMiddle4
												{
													OFFSET -0.000000 2.741236 0.000000
													CHANNELS 3 Zrotation Yrotation Xrotation
													End Site
													{
														OFFSET 0.000000 0.000000 0.000000
													}
												}
											}
										}
									}
									JOINT RightHandRing1
									{
										OFFSET 0.086752 8.921708 -2.267442
										CHANNELS 3 Zrotation Yrotation Xrotation
										JOINT RightHandRing2
										{
											OFFSET 0.000000 4.061090 -0.000000
											CHANNELS 3 Zrotation Yrotation Xrotation
											JOINT RightHandRing3
											{
												OFFSET 0.000000 3.654981 -0.000000
												CHANNELS 3 Zrotation Yrotation Xrotation
												JOINT RightHandRing4
												{
													OFFSET -0.000000 2.741236 0.000000
													CHANNELS 3 Zrotation Yrotation Xrotation
													End Site
													{
														OFFSET 0.000000 0.000000 0.000000
													}
												}
											}
										}
									}
									JOINT RightHandPinky1
									{
										OFFSET -0.173504 7.976997 -4.467199
										CHANNELS 3 Zrotation Yrotation Xrotation
										JOINT RightHandPinky2
										{
											OFFSET -0.000000 3.350399 -0.000000
											CHANNELS 3 Zrotation Yrotation Xrotation
											JOINT RightHandPinky3
											{
												OFFSET -0.000000 2.842763 0.000000
												CHANNELS 3 Zrotation Yrotation Xrotation
												JOINT RightHandPinky4
												{
													OFFSET -0.000000 2.639709 0.000000
													CHANNELS 3 Zrotation Yrotation Xrotation
													End Site
													{
														OFFSET 0.000000 0.000000 0.000000
													}
												}
											}
										}
									}
									JOINT RightForeArmEnd
									{
										OFFSET 0.000000 0.000000 0.000000
										CHANNELS 3 Zrotation Yrotation Xrotation
										End Site
										{
											OFFSET 0.000000 0.000000 0.000000
										}
									}
								}
								JOINT RightArmEnd
								{
									OFFSET 0.000000 0.000000 0.000000
									CHANNELS 3 Zrotation Yrotation Xrotation
									End Site
									{
										OFFSET 0.000000 0.000000 0.000000
									}
								}
							}
						}
					}
					JOINT LeftShoulder
					{
						OFFSET 2.625389 11.175210 -0.000000
						CHANNELS 3 Zrotation Yrotation Xrotation
						JOINT LeftArm
						{
							OFFSET 0.000000 10.813635 0.000000
							CHANNELS 3 Zrotation Yrotation Xrotation
							JOINT LeftForeArm
							{
								OFFSET 0.000000 28.724781 0.000000
								CHANNELS 3 Zrotation Yrotation Xrotation
								JOINT LeftHand
								{
									OFFSET 0.644384 25.716167 -0.328871
									CHANNELS 3 Zrotation Yrotation Xrotation
									JOINT LeftHandThumb1
									{
										OFFSET 2.867323 3.959563 2.944291
										CHANNELS 3 Zrotation Yrotation Xrotation
										JOINT LeftHandThumb2
										{
											OFFSET 0.000000 3.350399 -0.000000
											CHANNELS 3 Zrotation Yrotation Xrotation
											JOINT LeftHandThumb3
											{
												OFFSET 0.000000 3.756509 0.000000
												CHANNELS 3 Zrotation Yrotation Xrotation
												JOINT LeftHandThumb4
												{
													OFFSET 0.000000 3.100000 0.000000
													CHANNELS 3 Zrotation Yrotation Xrotation
													End Site
													{
														OFFSET 0.000000 0.000000 0.000000
													}
												}
											}
										}
									}
									JOINT LeftHandIndex1
									{
										OFFSET 0.086752 10.030893 2.345280
										CHANNELS 3 Zrotation Yrotation Xrotation
										JOINT LeftHandIndex2
										{
											OFFSET -0.000000 4.061090 -0.000000
											CHANNELS 3 Zrotation Yrotation Xrotation
											JOINT LeftHandIndex3
											{
												OFFSET -0.000000 3.248873 -0.000000
												CHANNELS 3 Zrotation Yrotation Xrotation
												JOINT LeftHandIndex4
												{
													OFFSET -0.000000 2.639709 -0.000000
													CHANNELS 3 Zrotation Yrotation Xrotation
													End Site
													{
														OFFSET 0.000000 0.000000 0.000000
													}
												}
											}
										}
									}
									JOINT LeftHandMiddle1
									{
										OFFSET -0.104102 9.502952 0.006768
										CHANNELS 3 Zrotation Yrotation Xrotation
										JOINT LeftHandMiddle2
										{
											OFFSET 0.000000 4.568727 0.000000
											CHANNELS 3 Zrotation Yrotation Xrotation
											JOINT LeftHandMiddle3
											{
												OFFSET 0.000000 3.654981 0.000000
												CHANNELS 3 Zrotation Yrotation Xrotation
												JOINT LeftHandMiddle4
												{
													OFFSET 0.000000 2.741236 0.000000
													CHANNELS 3 Zrotation Yrotation Xrotation
													End Site
													{
														OFFSET 0.000000 0.000000 0.000000
													}
												}
											}
										}
									}
									JOINT LeftHandRing1
									{
										OFFSET -0.086752 8.921708 -2.267442
										CHANNELS 3 Zrotation Yrotation Xrotation
										JOINT LeftHandRing2
										{
											OFFSET -0.000000 4.061090 -0.000000
											CHANNELS 3 Zrotation Yrotation Xrotation
											JOINT LeftHandRing3
											{
												OFFSET 0.000000 3.654981 -0.000000
												CHANNELS 3 Zrotation Yrotation Xrotation
												JOINT LeftHandRing4
												{
													OFFSET 0.000000 2.741236 0.000000
													CHANNELS 3 Zrotation Yrotation Xrotation
													End Site
													{
														OFFSET 0.000000 0.000000 0.000000
													}
												}
											}
										}
									}
									JOINT LeftHandPinky1
									{
										OFFSET 0.173504 7.976997 -4.467199
										CHANNELS 3 Zrotation Yrotation Xrotation
										JOINT LeftHandPinky2
										{
											OFFSET 0.000000 3.350399 0.000000
											CHANNELS 3 Zrotation Yrotation Xrotation
											JOINT LeftHandPinky3
											{
												OFFSET 0.000000 2.842763 -0.000000
												CHANNELS 3 Zrotation Yrotation Xrotation
												JOINT LeftHandPinky4
												{
													OFFSET -0.000000 2.639709 -0.000000
													CHANNELS 3 Zrotation Yrotation Xrotation
													End Site
													{
														OFFSET 0.000000 0.000000 0.000000
													}
												}
											}
										}
									}
									JOINT LeftForeArmEnd
									{
										OFFSET 0.000000 0.000000 0.000000
										CHANNELS 3 Zrotation Yrotation Xrotation
										End Site
										{
											OFFSET 0.000000 0.000000 0.000000
										}
									}
								}
								JOINT LeftArmEnd
								{
									OFFSET 0.000000 0.000000 0.000000
									CHANNELS 3 Zrotation Yrotation Xrotation
									End Site
									{
										OFFSET 0.000000 0.000000 0.000000
									}
								}
							}
						}
					}
				}
			}
		}
	}
	JOINT RightUpLeg
	{
		OFFSET -11.289943 -0.000000 0.000000
		CHANNELS 3 Zrotation Yrotation Xrotation
		JOINT RightLeg
		{
			OFFSET 0.000000 -38.200325 0.000000
			CHANNELS 3 Zrotation Yrotation Xrotation
			JOINT RightFoot
			{
				OFFSET 0.000000 -39.900856 0.000000
				CHANNELS 3 Zrotation Yrotation Xrotation
				JOINT RightToeBase
				{
					OFFSET 0.000000 0.000000 15.261641
					CHANNELS 3 Zrotation Yrotation Xrotation
					JOINT RightToeBaseEnd
					{
						OFFSET -0.000000 0.000000 7.370709
						CHANNELS 3 Zrotation Yrotation Xrotation
						End Site
						{
							OFFSET 0.000000 0.000000 0.000000
						}
					}
				}
				JOINT RightLegEnd
				{
					OFFSET 0.000000 0.000000 0.000000
					CHANNELS 3 Zrotation Yrotation Xrotation
					End Site
					{
						OFFSET 0.000000 0.000000 0.000000
					}
				}
			}
			JOINT RightUpLegEnd
			{
				OFFSET 0.000000 0.000000 0.000000
				CHANNELS 3 Zrotation Yrotation Xrotation
				End Site
				{
					OFFSET 0.000000 0.000000 0.000000
				}
			}
		}
	}
	JOINT LeftUpLeg
	{
		OFFSET 11.315661 -0.000000 -0.000000
		CHANNELS 3 Zrotation Yrotation Xrotation
		JOINT LeftLeg
		{
			OFFSET 0.000000 -38.200325 0.000000
			CHANNELS 3 Zrotation Yrotation Xrotation
			JOINT LeftFoot
			{
				OFFSET -0.000000 -39.900856 -0.000000
				CHANNELS 3 Zrotation Yrotation Xrotation
				JOINT LeftToeBase
				{
					OFFSET 0.000000 0.000000 15.261641
					CHANNELS 3 Zrotation Yrotation Xrotation
					JOINT LeftToeBaseEnd
					{
						OFFSET -0.000000 0.000000 7.539996
						CHANNELS 3 Zrotation Yrotation Xrotation
						End Site
						{
							OFFSET 0.000000 0.000000 0.000000
						}
					}
				}
				JOINT LeftLegEnd
				{
					OFFSET 0.000000 0.000000 0.000000
					CHANNELS 3 Zrotation Yrotation Xrotation
					End Site
					{
						OFFSET 0.000000 0.000000 0.000000
					}
				}
			}
			JOINT LeftUpLegEnd
			{
				OFFSET 0.000000 0.000000 0.000000
				CHANNELS 3 Zrotation Yrotation Xrotation
				End Site
				{
					OFFSET 0.000000 0.000000 0.000000
				}
			}
		}
	}
}
MOTION
Frames: 4
Frame Time: 0.016667
0.559510 88.370186 5.270278 0.377463 0.095152 -14.148361 1.354555 -0.260608 9.504204 -0.635657 0.174382 2.757480 -2.516418 0.516558 5.117703 -2.019222 -0.047013 1.542074 3.781396 -2.040888 6.121133 -0.172407 -0.920409 -2.867322 -0.148527 -0.833305 -17.534327 0.000000 0.000000 0.000000 94.433563 -0.859878 11.251544 61.796795 -39.742241 10.913876 -0.196673 12.894624 21.939508 6.807906 13.835530 -5.194727 12.135554 -1.950835 39.216904 0.000000 0.000000 -29.519997 0.000000 0.000000 -20.499998 0.000000 0.000000 0.000000 20.586378 0.000000 -10.328639 14.410469 0.000000 0.000000 14.410469 0.000000 0.000000 0.000000 0.000000 0.000000 19.330765 0.000000 -10.569376 13.531536 0.000000 0.000000 13.531536 0.000000 0.000000 0.000000 0.000000 0.000000 20.759140 0.000000 -8.681380 14.531396 0.000000 0.000000 14.531396 0.000000 0.000000 0.000000 0.000000 0.000000 21.112377 0.000000 -8.227983 14.778659 0.000000 0.000000 14.778659 0.000000 0.000000 0.000000 0.000000 0.000000 0.000000 0.000000 0.000000 0.000000 0.000000 0.000000 -91.963669 0.209357 5.943383 -68.176491 25.709898 -6.873686 -0.511503 -8.921147 39.239540 12.691621 -9.193921 -16.898151 -21.432499 1.926430 35.620716 0.000000 0.000000 -51.839996 0.000000 0.000000 -36.000004 0.000000 0.000000 0.000000 -64.504875 0.000000 -12.927964 -45.153412 0.000000 0.000000 -45.153412 0.000000 0.000000 0.000000 0.000000 0.000000 -59.159660 0.000000 -9.267982 -41.411766 0.000000 0.000000 -41.411766 0.000000 0.000000 0.000000 0.000000 0.000000 -54.098694 0.000000 -5.071388 -37.869087 0.000000 0.000000 -37.869087 0.000000 0.000000 0.000000 0.000000 0.000000 -46.683052 0.000000 -1.979767 -32.678135 0.000000 0.000000 -32.678135 0.000000 0.000000 0.000000 0.000000 0.000000 0.000000 0.000000 0.000000 0.000000 0.000000 0.000000 -10.570939 -17.134075 21.132973 -0.117816 -1.452236 4.594962 5.109068 -14.331980 17.897655 -1.670291 1.849355 -17.537710 0.000000 0.000000 0.000000 0.000000 0.000000 0.000000 0.000000 0.000000 0.000000 1.978691 -4.377448 13.689282 0.184808 1.000992 9.760185 -1.978993 7.901402 16.287004 1.052980 -1.148455 -19.334991 0.000000 0.000000 0.000000 0.000000 0.000000 0.000000 0.000000 0.000000 0.000000 
0.584628 88.240669 5.153641 0.074724 -0.145101 -12.694337 1.402580 -0.200024 7.875236 0.150295 0.072171 1.965359 -2.428619 1.256915 5.409392 -1.965996 0.365847 3.294797 3.463854 -2.654708 3.869257 0.226321 -1.618500 -3.614678 0.425861 -0.945045 -17.432953 0.000000 0.000000 0.000000 93.850739 -0.405946 11.667415 62.851357 -36.935429 8.714852 0.184084 13.842287 24.631701 6.700031 13.062303 -5.661718 12.107492 -1.963075 39.269684 0.000001 0.000045 -29.351706 0.000012 0.000042 -20.267414 0.000011 -0.000001 -0.000036 20.347092 -0.027920 -10.296945 13.999285 -0.271007 0.461122 14.155548 -0.242504 0.335343 -0.000015 0.000037 -0.000032 19.346840 -0.018570 -10.531469 13.118153 -0.105290 0.152009 13.320651 -0.074738 0.113040 0.000021 0.000040 0.000005 20.778584 0.007983 -9.326163 13.885263 0.216747 -0.216239 13.879828 0.126602 -0.152532 -0.000028 -0.000638 0.000002 21.104605 0.090678 -9.817062 13.852800 0.572537 -0.589679 13.728507 0.424941 -0.482898 0.000002 0.000002 0.000027 0.000000 0.000000 0.000000 0.000000 0.000000 0.000000 -90.033890 0.167224 5.689010 -68.545280 24.007385 -4.590279 -0.965851 -7.455092 38.867580 12.230347 -8.031749 -13.389790 -20.717421 2.200210 35.373283 0.000004 0.000029 -50.217743 0.000081 -0.000014 -35.136574 -0.000874 -0.000001 -0.000118 -60.329063 -0.008413 -11.617283 -42.004047 0.163859 1.187623 -42.101048 0.175249 1.004748 0.000016 0.000293 0.000011 -56.713726 0.011461 -9.199105 -40.254696 0.052353 0.424213 -40.110584 0.051231 0.345702 0.000531 -0.000061 0.000015 -52.901764 0.040802 -5.624895 -37.989304 -0.052919 -0.584665 -38.066872 -0.054801 -0.414460 -0.000670 0.000007 0.000010 -45.656937 0.096251 -1.257374 -33.049553 -0.099284 -1.298973 -33.163658 -0.130931 -1.029527 -0.000161 -0.000016 -0.000048 0.000000 0.000000 0.000000 0.000000 0.000000 0.000000 -9.699362 -15.565395 19.865786 -0.189197 -1.126978 4.294020 5.232396 -14.529903 17.371088 -1.589904 1.468934 -16.351406 0.000000 0.000000 0.000000 0.000000 0.000000 0.000000 0.000000 0.000000 0.000000 4.079424 -2.899566 12.896214 0.156627 0.734266 10.722407 -1.781243 5.353318 16.356976 0.703969 -0.858905 -19.251894 0.000000 0.000000 0.000000 0.000000 0.000000 0.000000 0.000000 0.000000 0.000000 
0.609188 88.242203 5.089409 0.186036 -0.095287 -12.612398 1.294104 -0.190783 7.949803 0.052488 0.084847 1.849041 -2.355470 1.128838 5.532547 -1.885348 0.326780 3.349345 3.573141 -2.473082 3.665003 0.343031 -1.372662 -3.611020 0.385747 -0.943777 -17.369839 0.000000 0.000000 0.000000 93.742752 -0.344936 11.739667 62.888813 -37.229309 8.532050 0.137143 13.632471 24.824144 6.239857 12.555536 -5.777613 12.234707 -1.971187 39.218849 -0.000007 0.000054 -29.665155 0.000017 0.000038 -20.482014 0.000019 0.000003 -0.000041 21.266195 -0.023758 -10.037556 14.421918 -0.249263 0.394352 14.568376 -0.219747 0.279463 -0.000011 0.000041 -0.000024 20.155025 -0.017393 -10.220022 13.522173 -0.097215 0.127078 13.716976 -0.067237 0.095293 0.000021 0.000037 -0.000001 21.356985 0.002664 -9.028811 14.202518 0.203367 -0.192868 14.212184 0.116532 -0.132035 -0.000031 -0.000599 -0.000006 21.483038 0.074410 -9.542403 14.121500 0.537918 -0.517612 13.991374 0.392763 -0.421460 0.000031 0.000005 0.000031 0.000000 0.000000 0.000000 0.000000 0.000000 0.000000 -89.751198 0.162321 5.702585 -68.694771 23.736944 -4.465204 -0.896776 -7.366996 38.835213 12.330082 -8.147697 -13.490955 -20.741283 2.195409 35.354717 0.000010 0.000032 -50.314606 0.000048 -0.000011 -35.213837 -0.000885 0.000004 -0.000216 -60.556602 -0.001906 -11.452422 -42.114555 0.164068 1.146837 -42.229218 0.175445 0.971421 0.000024 0.000272 0.000016 -57.028114 0.013633 -9.061325 -40.421608 0.051853 0.409560 -40.264641 0.050953 0.334333 0.000715 -0.000058 -0.000002 -53.455936 0.039510 -5.526237 -38.300110 -0.053671 -0.570011 -38.394943 -0.056347 -0.403656 -0.000709 0.000012 0.000011 -46.402142 0.087168 -1.186365 -33.489414 -0.109727 -1.265266 -33.611443 -0.140056 -1.001077 -0.000243 -0.000007 -0.000057 0.000000 0.000000 0.000000 0.000000 0.000000 0.000000 -9.875360 -15.698687 19.657358 -0.187042 -1.130984 4.433738 5.332997 -14.492600 17.288986 -1.611105 1.474202 -16.372362 0.000000 0.000000 0.000000 0.000000 0.000000 0.000000 0.000000 0.000000 0.000000 3.992066 -2.643972 12.919920 0.154629 0.722775 10.560916 -1.789992 5.371681 16.307304 0.711972 -0.877901 -19.201677 0.000000 0.000000 0.000000 0.000000 0.000000 0.000000 0.000000 0.000000 0.000000 
0.619249 88.234138 5.028192 0.353546 -0.062602 -12.558960 1.137620 -0.156787 8.031047 -0.063978 0.110988 1.787326 -2.285938 1.045121 5.628045 -1.819047 0.290936 3.418104 3.515360 -2.274082 3.476054 0.450256 -1.196627 -3.648920 0.356147 -0.955909 -17.367725 0.000000 0.000000 0.000000 93.584656 -0.277425 11.835134 62.914719 -37.347122 8.494863 0.099267 13.389941 25.108603 5.892774 12.055376 -5.658428 12.386063 -1.980676 39.158546 -0.000009 0.000052 -30.051075 0.000018 0.000039 -20.731958 0.000020 0.000003 -0.000041 22.163130 -0.022830 -9.773293 14.888007 -0.224499 0.310032 15.022722 -0.193920 0.207855 -0.000012 0.000040 -0.000022 20.941887 -0.017646 -9.911184 13.973378 -0.087586 0.096700 14.155675 -0.058962 0.071699 0.000020 0.000039 0.000001 21.944706 -0.000285 -8.697632 14.561771 0.189851 -0.164530 14.577959 0.106884 -0.106668 -0.000029 -0.000562 -0.000006 21.797819 0.061143 -9.195190 14.429610 0.503920 -0.439261 14.289330 0.361871 -0.353366 0.000062 0.000004 0.000027 0.000000 0.000000 0.000000 0.000000 0.000000 0.000000 -89.370331 0.137701 5.786844 -68.729446 23.528833 -4.338918 -0.834339 -7.361372 39.024696 12.321108 -8.234739 -13.331764 -20.798937 2.189510 35.323448 0.000009 0.000031 -50.493977 0.000028 -0.000012 -35.343903 -0.000889 0.000003 -0.000272 -60.880280 -0.000661 -11.284680 -42.285965 0.164813 1.116264 -42.415028 0.176066 0.947931 0.000022 0.000246 0.000018 -57.447414 0.013524 -8.907045 -40.654850 0.052017 0.397887 -40.494263 0.051194 0.326360 0.000929 -0.000059 -0.000016 -54.164127 0.039353 -5.370157 -38.734905 -0.056227 -0.562995 -38.836250 -0.058579 -0.397412 -0.000637 0.000012 0.000011 -47.376778 0.077483 -1.049048 -34.089066 -0.122166 -1.253222 -34.228683 -0.149844 -0.988437 -0.000280 -0.000009 -0.000057 0.000000 0.000000 0.000000 0.000000 0.000000 0.000000 -10.101114 -15.733939 19.430220 -0.187074 -1.135083 4.622939 5.428946 -14.388659 17.233988 -1.623990 1.471426 -16.448124 0.000000 0.000000 0.000000 0.000000 0.000000 0.000000 0.000000 0.000000 0.000000 3.857357 -2.363705 12.973694 0.152035 0.716169 10.426059 -1.740846 5.425034 16.252729 0.722711 -0.885310 -19.187725 0.000000 0.000000 0.000000 0.000000 0.000000 0.000000 0.000000 0.000000 0.000000 
